<svg xmlns="http://www.w3.org/2000/svg" viewBox="0 0 32 32" >
<path d="M18.66 3.14c-3.1 2.78-5.03 7.16-5.03 15.1 0 3.4 0 7.17-.01 11.94-3.93-.5-7.39-2.21-9.83-4.69-2.29-2.3-3.78-5.84-3.78-11.09l-.01-13.4c3.21 0 6.15 1.36 8.46 3.63 2.25-1.03 4.81-1.61 7.54-1.61 .73 0 1.96 .04 2.66 .12zm13.34-2.14-.01 13.4c0 5.25-1.49 8.79-3.77 11.09-2.45 2.47-5.89 4.18-9.8 4.69 .01-4.77 .01-8.38 .01-11.78 0-7.3 1.59-10.43 5.11-13.77 2.44-2.31 5.25-3.63 8.46-3.63zm-9.72 15.44c0 .8 0 2.45 0 2.45s1.37 0 2.3 0c1.68 0 2.47-.35 3.03-.91s0.92-1.35 .92-2.21c0-1.73-1.4-3.13-3.13-3.13-.85 0-1.62 .34-2.18 .89-.58 .57-.94 1.39-.94 2.91z"/>
</svg>
