<?xml version="1.0" encoding="utf-8"?>
<!-- Generator: Adobe Illustrator 16.0.0, SVG Export Plug-In . SVG Version: 6.00 Build 0)  -->
<!DOCTYPE svg PUBLIC "-//W3C//DTD SVG 1.1//EN" "http://www.w3.org/Graphics/SVG/1.1/DTD/svg11.dtd">
<svg version="1.1" id="Ebene_1" xmlns="http://www.w3.org/2000/svg" xmlns:xlink="http://www.w3.org/1999/xlink" x="0px" y="0px"
	 width="72.645px" height="52.992px" viewBox="0 0 72.645 52.992" enable-background="new 0 0 72.645 52.992" xml:space="preserve">
<path id="icon" d="M37.774,2.142c-3.093,2.781-5.024,7.154-5.024,15.1c0,3.397-0.004,7.168-0.009,11.937
	c-3.927-0.502-7.387-2.214-9.835-4.686c-2.282-2.302-3.776-5.84-3.776-11.092L19.119,0c3.21,0,6.154,1.363,8.456,3.63
	c2.248-1.028,4.816-1.612,7.544-1.612C35.843,2.018,37.078,2.061,37.774,2.142z M51.119,0l-0.012,13.401
	c0,5.252-1.493,8.79-3.772,11.092c-2.442,2.465-5.887,4.174-9.795,4.682c0.007-4.767,0.009-8.376,0.009-11.773
	c0-7.306,1.585-10.434,5.115-13.771C45.098,1.324,47.908,0,51.119,0z M47.399,14.094c0-0.8,0-2.453,0-2.453s-1.372,0-2.299,0
	c-1.687,0-2.472,0.349-3.037,0.915s-0.915,1.348-0.915,2.211c0,1.725,1.399,3.126,3.124,3.126c0.852,0,1.624-0.341,2.188-0.894
	C47.04,16.432,47.399,15.609,47.399,14.094z"/>
<g id="logotype">
	<path d="M0,49.487V38.864h6.658l-0.36,1.797H2.614v2.817h3.225v1.793H2.614v4.216H0z"/>
	<path d="M16.699,40.063c0.885,0.971,1.328,2.339,1.328,4.108c0,1.152-0.202,2.147-0.604,2.987
		c-0.402,0.837-0.981,1.478-1.738,1.922c-0.756,0.446-1.655,0.667-2.695,0.667c-1.04,0-1.936-0.219-2.688-0.656
		c-0.75-0.442-1.328-1.078-1.73-1.909c-0.401-0.832-0.603-1.839-0.603-3.011c0-1.144,0.201-2.139,0.603-2.976
		c0.403-0.837,0.98-1.479,1.73-1.923c0.752-0.447,1.647-0.668,2.688-0.668C14.577,38.604,15.814,39.091,16.699,40.063z
		 M11.294,41.325c-0.371,0.589-0.556,1.534-0.556,2.846c0,1.305,0.188,2.258,0.564,2.851c0.375,0.592,0.937,0.889,1.688,0.889
		c0.772,0,1.342-0.297,1.713-0.883c0.369-0.587,0.554-1.541,0.554-2.856c0-1.321-0.187-2.269-0.563-2.853
		c-0.375-0.582-0.943-0.873-1.704-0.873C12.229,40.445,11.663,40.739,11.294,41.325z"/>
	<path d="M29.17,49.487h-3.088l-3.646-8.229c0.102,0.809,0.182,1.518,0.237,2.136c0.057,0.619,0.084,1.353,0.084,2.2v3.894h-2.386
		V38.864h3.269l3.466,8.248c-0.225-1.401-0.337-2.717-0.337-3.955v-4.293h2.402V49.487z"/>
	<path d="M39.221,38.864l-0.295,1.934h-2.571v8.689h-2.613v-8.689h-2.693v-1.934H39.221z"/>
	<path d="M42.884,42.326c0.405-0.574,0.861-1.001,1.366-1.287c0.506-0.284,1.037-0.426,1.598-0.426c0.612,0,1.119,0.181,1.514,0.55
		c0.397,0.368,0.593,0.844,0.593,1.423c0,0.704-0.225,1.318-0.675,1.849c-0.449,0.522-1.12,0.932-2.008,1.216l1.957,3.837H45.55
		l-2.073-4.232c1.021-0.283,1.756-0.621,2.207-1.014c0.447-0.388,0.675-0.887,0.675-1.489c0-0.306-0.082-0.542-0.248-0.699
		c-0.165-0.16-0.397-0.239-0.692-0.239c-0.492,0-0.999,0.213-1.513,0.633c-0.516,0.424-0.95,1.035-1.301,1.837l-0.727,5.204h-1.499
		l1.715-12.169l1.515-0.179L42.884,42.326z"/>
	<path d="M51.956,40.812l-1.219,8.676h-1.498l1.216-8.676H51.956z M50.854,38.429c-0.176-0.179-0.264-0.402-0.264-0.665
		c0-0.318,0.108-0.586,0.327-0.798c0.222-0.215,0.49-0.322,0.807-0.322c0.296,0,0.533,0.088,0.709,0.264
		c0.175,0.176,0.264,0.401,0.264,0.674c0,0.321-0.109,0.588-0.33,0.801c-0.219,0.214-0.487,0.322-0.807,0.322
		C51.263,38.704,51.026,38.61,50.854,38.429z"/>
	<path d="M55.627,47.199c-0.022,0.219-0.034,0.362-0.034,0.427c0,0.274,0.063,0.477,0.189,0.6c0.126,0.127,0.322,0.193,0.586,0.193
		c0.198,0,0.392-0.034,0.584-0.091c0.192-0.063,0.416-0.154,0.667-0.274l0.493,1.055c-0.604,0.385-1.245,0.578-1.926,0.578
		c-0.67,0-1.185-0.173-1.549-0.518c-0.36-0.351-0.542-0.839-0.542-1.477c0-0.232,0.011-0.404,0.032-0.528l0.724-5.188h-1.497
		l0.166-1.165h1.563l0.544-2.011l1.186-0.13l-0.296,2.141h4.048l-0.328,1.165h-3.885L55.627,47.199z"/>
	<path d="M61.169,47.199c-0.021,0.219-0.03,0.362-0.03,0.427c0,0.274,0.063,0.477,0.188,0.6c0.126,0.127,0.323,0.193,0.585,0.193
		c0.2,0,0.392-0.034,0.585-0.091c0.191-0.063,0.414-0.154,0.668-0.274l0.492,1.055c-0.604,0.385-1.245,0.578-1.927,0.578
		c-0.669,0-1.185-0.173-1.548-0.518c-0.362-0.351-0.544-0.839-0.544-1.477c0-0.232,0.013-0.404,0.034-0.528l0.724-5.188h-1.497
		l0.166-1.165h1.563l0.541-2.011l1.186-0.13l-0.297,2.141h2.044l-0.33,1.165h-1.876L61.169,47.199z"/>
	<path d="M68.629,49.567c-0.449,1.002-1.031,1.789-1.746,2.373c-0.712,0.583-1.641,0.932-2.78,1.052l-0.068-1.183
		c0.594-0.101,1.073-0.244,1.441-0.43c0.368-0.185,0.678-0.423,0.932-0.717c0.25-0.29,0.51-0.68,0.773-1.176H66.62l-1.664-8.676
		h1.582l1.218,7.522l3.328-7.522h1.562L68.629,49.567z"/>
</g>
</svg>
