<svg xmlns="http://www.w3.org/2000/svg" width="72.645px" height="52.992px" viewBox="0 0 72.645 52.992">
<path  d="M37.8 2.1c-3.1 2.8-5 7.2-5 15.1 0 3.4-.1 7.2-.1 12-3.9-.5-7.3-2.2-9.8-4.7-2.3-2.3-3.8-5.8-3.8-11.1l0-13.4c3.2 0 6.2 1.4 8.5 3.6 2.2-1 4.8-1.6 7.5-1.6 .7 0 2 .1 2.7 .1zm13.3-2.1 0 13.4c0 5.3-1.5 8.8-3.8 11.1-2.4 2.5-5.9 4.2-9.8 4.7 0-4.8 0-8.4 0-11.8 0-7.3 1.6-10.4 5.2-13.8 2.4-2.3 5.2-3.6 8.4-3.6zm-9.7 15.4c0 .8 0 2.5 0 2.5s1.4 0 2.3 0c1.7 0 2.5-.4 3-.9 .6-.6 .9-1.4 .9-2.2 0-1.8-1.4-3.2-3.1-3.2-.8 0-1.6 .4-2.2 .9-.5 .6-.9 1.4-.9 2.9zm-41.4 34.1v-10.6h6.7l-.4 1.8-3.7 0 0 2.8 3.2 0 0 1.8-3.2 0 0 4.2-2.6 0zm16.7-9.4c0.9 .9 1.3 2.3 1.3 4.1 0 1.1-.2 2.1-.6 3-.4 .8-1 1.4-1.7 1.9-.8 .4-1.7 .6-2.7 .6s-1.9-.2-2.7-.6c-.7-.5-1.3-1.1-1.7-1.9s-.6-1.9-.6-3 .2-2.2 .6-3 1-1.5 1.7-1.9 1.6-.7 2.7-.7c1.6 0 2.8 .5 3.7 1.5zm-5.4 1.2c-.4 .6-.6 1.6-.6 2.9s0.2 2.2 .6 2.8 .9 .9 1.7 .9c0.8 0 1.3-.3 1.7-.9s0.6-1.5 .6-2.8-.2-2.3-.6-2.9-.9-.9-1.7-.9-1.3 .3-1.7 .9zm17.9 8.2h-3.1l-3.7-8.2c0.1 .8 .2 1.5 .3 2.1 0 .6 .1 1.3 .1 2.2l0 3.9-2.4 0 0-10.6 3.2 0 3.5 8.2c-.2-1.4-.3-2.7-.3-3.9l0-4.3 2.4 0 0 10.6zm10-10.6-.3 1.9h-2.5v8.7h-2.7v-8.7h-2.7v-1.9h8.2zm3.7 3.4c0.4-.5 .8-1 1.4-1.3 .5-.2 1-.4 1.5-.4 .7 0 1.2 .2 1.6 .6 .4 .3 .6 .8 .6 1.4 0 .7-.3 1.3-.7 1.8-.5 .6-1.1 1-2 1.3l1.9 3.8-1.7 0-2-4.2c1-.3 1.7-.7 2.2-1.1 .4-.3 .7-.8 .7-1.4 0-.4-.1-.6-.3-.7-.2-.2-.4-.3-.7-.3-.5 0-1 .2-1.5 .6-.5 .5-.9 1.1-1.3 1.9l-.7 5.2-1.5 0 1.7-12.2 1.5-.2-.7 5.2zm9.1-1.5-1.3 8.7-1.5 0 1.3-8.7 1.5 0zm-1.1-2.4c-.2-.1-.3-.4-.3-.6 0-.4 .1-.6 .3-.8s0.5-.4 .8-.4 .6 .1 .7 .3 .3 .4 .3 .7-.1 .6-.3 .8-.5 .3-.8 .3c-.3 0-.6-.1-.7-.3zm4.7 8.8c0 .2 0 .4 0 .4 0 .3 .1 .5 .2 .6 .1 .2 .3 .2 .6 .2 .2 0 .4 0 .6-.1 .1 0 .4-.1 .6-.2l0.5 1c-.6 .4-1.2 .6-1.9 .6s-1.2-.2-1.6-.5-.5-.9-.5-1.5c0-.2 0-.4 0-.5l0.8-5.2-1.5 0 .1-1.2 1.6 0 .5-2 1.2-.1-.3 2.1 4.1 0-.4 1.2-3.8 0-.8 5.2zm5.6 0c-.1 .2-.1 .4-.1 .4 0 .3 .1 .5 .2 .6 .2 .2 .3 .2 .6 .2 .2 0 .4 0 .6-.1 .2 0 .4-.1 .7-.2l0.5 1c-.6 .4-1.3 .6-2 .6-.6 0-1.2-.2-1.5-.5-.4-.4-.6-.9-.6-1.5 0-.2 .1-.4 .1-.5l0.7-5.2-1.5 0 .2-1.2 1.5 0 .6-2 1.2-.1-.3 2.1 2 0-.3 1.2-1.9 0-.7 5.2zm7.4 2.4c-.4 1-1 1.8-1.7 2.3-.7 .6-1.7 1-2.8 1.1l-.1-1.2c0.6-.1 1.1-.2 1.5-.4 .3-.2 .7-.4 .9-.7 .3-.3 .5-.7 .8-1.2l-.6 0-1.6-8.7 1.5 0 1.3 7.5 3.3-7.5 1.5 0-4 8.8z"/>
</svg>