<?xml version="1.0" encoding="utf-8"?>
<!-- Generator: Adobe Illustrator 16.0.0, SVG Export Plug-In . SVG Version: 6.00 Build 0)  -->
<!DOCTYPE svg PUBLIC "-//W3C//DTD SVG 1.1//EN" "http://www.w3.org/Graphics/SVG/1.1/DTD/svg11.dtd">
<svg version="1.1" id="Ebene_1" xmlns="http://www.w3.org/2000/svg" xmlns:xlink="http://www.w3.org/1999/xlink" x="0px" y="0px"
	 width="32px" height="32px" viewBox="0 0 32 32" enable-background="new 0 0 32 32" xml:space="preserve">
<path id="icon_2_" d="M18.656,3.142c-3.094,2.781-5.025,7.154-5.025,15.1c0,3.397-0.004,7.168-0.01,11.937
	c-3.926-0.502-7.387-2.214-9.834-4.686c-2.283-2.302-3.777-5.84-3.777-11.092L0,1c3.211,0,6.154,1.363,8.457,3.63
	C10.705,3.602,13.271,3.018,16,3.018C16.725,3.018,17.959,3.061,18.656,3.142z M32,1l-0.012,13.401c0,5.252-1.492,8.79-3.771,11.092
	c-2.443,2.465-5.887,4.174-9.795,4.682c0.006-4.767,0.008-8.376,0.008-11.773c0-7.306,1.586-10.434,5.115-13.771
	C25.979,2.324,28.789,1,32,1z M22.277,16.439c0,0.8,0,2.453,0,2.453s1.373,0,2.299,0c1.688,0,2.473-0.35,3.037-0.915
	c0.566-0.565,0.916-1.348,0.916-2.211c0-1.725-1.4-3.126-3.125-3.126c-0.852,0-1.623,0.341-2.188,0.894
	C22.637,14.102,22.277,14.924,22.277,16.439z"/>
</svg>
