<?xml version="1.0" encoding="utf-8"?>
<!-- Generator: Adobe Illustrator 16.0.0, SVG Export Plug-In . SVG Version: 6.00 Build 0)  -->
<!DOCTYPE svg PUBLIC "-//W3C//DTD SVG 1.1//EN" "http://www.w3.org/Graphics/SVG/1.1/DTD/svg11.dtd">
<svg version="1.1" id="Ebene_1" xmlns="http://www.w3.org/2000/svg" xmlns:xlink="http://www.w3.org/1999/xlink" x="0px" y="0px"
	 width="32px" height="32px" viewBox="0 0 32 32" enable-background="new 0 0 32 32" xml:space="preserve">
<path id="icon_1_" d="M18.775,3.142c-3.094,2.781-5.025,7.154-5.025,15.1c0,3.397-0.004,7.168-0.009,11.937
	c-3.927-0.502-7.387-2.214-9.835-4.686c-2.282-2.302-3.776-5.84-3.776-11.092L0.12,1c3.21,0,6.154,1.363,8.456,3.63
	c2.248-1.028,4.816-1.612,7.544-1.612C16.844,3.018,18.078,3.061,18.775,3.142z M32.119,1l-0.012,13.401
	c0,5.252-1.492,8.79-3.771,11.092c-2.443,2.465-5.887,4.174-9.795,4.682c0.006-4.767,0.008-8.376,0.008-11.773
	c0-7.306,1.586-10.434,5.115-13.771C26.098,2.324,28.908,1,32.119,1z M28.4,15.094c0-0.8,0-2.453,0-2.453s-1.373,0-2.299,0
	c-1.688,0-2.473,0.349-3.037,0.915c-0.566,0.565-0.916,1.348-0.916,2.211c0,1.726,1.4,3.126,3.125,3.126
	c0.852,0,1.623-0.341,2.188-0.894C28.041,17.432,28.4,16.609,28.4,15.094z"/>
</svg>
