<svg  xmlns="http://www.w3.org/2000/svg" width="73" height="53" viewBox="0 0 73 53">
<path d="M37.77 2.14c-3.09 2.78-5.02 7.16-5.02 15.1 0 3.4 0 7.17-.01 11.94-3.93-.5-7.39-2.21-9.83-4.69-2.29-2.3-3.78-5.84-3.78-11.09l-.01-13.4c3.21 0 6.15 1.36 8.45 3.63 2.25-1.03 4.82-1.61 7.55-1.61 .72 0 1.96 .04 2.65 .12zm13.35-2.14-.01 13.4c0 5.25-1.5 8.79-3.77 11.09-2.45 2.47-5.89 4.18-9.8 4.69 .01-4.77 .01-8.38 .01-11.78 0-7.3 1.58-10.43 5.11-13.77 2.44-2.31 5.25-3.63 8.46-3.63zm-3.42 14.77c0-1.73-1.4-3.13-3.13-3.13s-3.12 1.4-3.12 3.13 1.4 3.12 3.12 3.12 3.13-1.4 3.13-3.12zm-47.7 34.72v-10.63h6.66l-.36 1.8h-3.69v2.82h3.23v1.79h-3.23v4.22h-2.61zm16.7-9.43c0.88 .97 1.33 2.34 1.33 4.11 0 1.15-.21 2.15-.61 2.99s-.98 1.48-1.73 1.92-1.66 .67-2.7 .67-1.94-.22-2.69-.66c-.75-.44-1.33-1.08-1.73-1.91s-.6-1.84-.6-3.01 .2-2.14 .6-2.97 .98-1.48 1.73-1.93 1.65-.67 2.69-.67c1.59 0 2.82 .49 3.71 1.46zm-5.41 1.27c-.37 .58-.55 1.53-.55 2.84s0.19 2.26 .56 2.85 .94 .89 1.69 .89c0.77 0 1.34-.3 1.71-.88 .37-.59 .56-1.54 .56-2.86s-.19-2.27-.57-2.85-.94-.87-1.7-.87-1.33 .29-1.7 .88zm17.88 8.16h-3.09l-3.64-8.23c0.1 .81 .18 1.52 .23 2.13s0.09 1.36 .09 2.2v3.9h-2.39v-10.63h3.27l3.47 8.25c-.23-1.4-.34-2.72-.34-3.95v-4.3h2.4v10.63zm10.05-10.63-.29 1.94h-2.58v8.69h-2.61v-8.69h-2.69v-1.94h8.17zm3.66 3.47c0.41-.58 .86-1 1.37-1.29s1.04-.43 1.6-.43c0.61 0 1.12 .18 1.51 .55s0.59 .85 .59 1.43c0 .7-.22 1.31-.67 1.84s-1.12 .94-2.01 1.22l1.96 3.84h-1.68l-2.07-4.23c1.02-.29 1.75-.63 2.2-1.02s0.68-.89 .68-1.49c0-.3-.08-.54-.25-.7s-.4-.23-.69-.23c-.49 0-1 .21-1.51 .63s-.95 1.03-1.31 1.84l-.72 5.2h-1.5l1.71-12.17 1.52-.18-.73 5.19zm9.08-1.52-1.22 8.68h-1.5l1.22-8.68h1.5zm-1.11-2.38c-.17-.18-.26-.4-.26-.67 0-.31 .11-.58 .33-.79s0.49-.33 .8-.33 .54 .09 .71 .27 .27 .4 .27 .67-.11 .59-.33 .8-.49 .33-.81 .33c-.3-.01-.53-.1-.71-.28zm4.78 8.77c-.02 .22-.04 .36-.04 .43 0 .27 .07 .47 .19 .6s0.32 .19 .59 .19 .39-.04 .58-.09 .42-.16 .67-.28l0.49 1.06c-.6 .38-1.24 .58-1.92 .58s-1.19-.18-1.55-.52-.54-.84-.54-1.48c0-.23 .01-.4 .03-.53l0.72-5.18h-1.5l0.17-1.17h1.56l0.55-2.01 1.18-.13-.29 2.14h4.04l-.32 1.17h-3.89l-.72 5.22zm5.54 0c-.02 .22-.03 .36-.03 .43 0 .27 .06 .47 .19 .6s0.32 .19 .58 .19c0.2 0 .39-.04 .59-.09s0.41-.16 .66-.28l0.5 1.06c-.61 .38-1.25 .58-1.93 .58-.67 0-1.19-.18-1.55-.52s-.54-.84-.54-1.48c0-.23 .01-.4 .03-.53l0.73-5.18h-1.5l0.16-1.17h1.57l0.54-2.01 1.18-.13-.29 2.14h2.04l-.33 1.17h-1.87l-.73 5.22zm7.46 2.37c-.45 1-1.03 1.79-1.75 2.37s-1.64 .93-2.78 1.05l-.06-1.18c0.59-.1 1.07-.25 1.44-.43 .36-.19 .67-.42 .93-.72s0.51-.68 .77-1.17h-.56l-1.66-8.68h1.58l1.22 7.52 3.32-7.52h1.57l-4.02 8.76z"/>
</svg>